<?xml version="1.0" encoding="utf-8"?>
<!-- Generator: Adobe Illustrator 22.0.1, SVG Export Plug-In . SVG Version: 6.00 Build 0)  -->
<svg version="1.1" id="Layer_1" xmlns="http://www.w3.org/2000/svg" xmlns:xlink="http://www.w3.org/1999/xlink" x="0px" y="0px"
	 viewBox="0 0 300 100" style="enable-background:new 0 0 300 100;" xml:space="preserve">
<style type="text/css">
	.st0{fill:url(#SVGID_1_);}
	.st1{fill:#2C3C4C;}
</style>
<g>
	
		<linearGradient id="SVGID_1_" gradientUnits="userSpaceOnUse" x1="8.9607" y1="26.3038" x2="47.263" y2="64.6061" gradientTransform="matrix(1 0 0 -1 0 102)">
		<stop  offset="0" style="stop-color:#5596DC"/>
		<stop  offset="0.65" style="stop-color:#826EC8"/>
		<stop  offset="1" style="stop-color:#826EC8"/>
	</linearGradient>
	<path class="st0" d="M35.7,25.8H20.5L0,61.3l7.4,12.9h41.3l7.4-12.9L35.7,25.8z M22.6,29.5h11l5.9,10.2L28.1,59.3L16.7,39.6
		L22.6,29.5z M4.2,61.3l10.4-18L26,63l-4.4,7.6H9.5L4.2,61.3z M46.7,70.5H25.8l15.8-27.3l10.4,18L46.7,70.5z"/>
	<g>
		<path class="st1" d="M81.5,37.9h4.3l5.5,10.5l5.6-10.5h4.1l-7.9,13.9v10.3h-3.7V51.8L81.5,37.9z"/>
		<path class="st1" d="M114.1,62.4c-6.8,0-11.2-5-11.2-12.1c0-7,4.3-12.7,11.6-12.7c6.8,0,11.2,5,11.2,12.1
			C125.7,56.7,121.4,62.4,114.1,62.4z M114.5,40.8c-5,0-7.7,4.1-7.7,9.5c0,5.4,2.8,8.9,7.3,8.9c5,0,7.7-4.1,7.7-9.5
			C121.8,44.3,119,40.8,114.5,40.8z"/>
		<path class="st1" d="M142.2,48.8h8.9v12.3c-1.9,0.8-5.3,1.3-7.8,1.3c-7.9,0-12.5-5-12.5-12.1c0-7.2,4.7-12.8,12.9-12.8
			c2.1,0,5,0.4,6.9,1.1l-0.3,3.5c-1.9-0.8-4.6-1.4-6.7-1.4c-5.7,0-8.9,4-8.9,9.6c0,5.5,3.2,8.9,8.7,8.9c1.3,0,3.2-0.2,4.2-0.5v-6.9
			h-5.4L142.2,48.8L142.2,48.8z"/>
		<path class="st1" d="M159.9,62.1H156l9.2-24.2h3.6l9.2,24.2h-4.2l-2.1-5.9H162L159.9,62.1z M163.1,53.2h7.4l-2.4-6.7
			c-0.5-1.3-1-2.9-1.2-4.1h-0.1c-0.3,1.1-0.9,2.9-1.3,4.1L163.1,53.2z"/>
		<path class="st1" d="M183.2,37.9h3.3l9.5,13.5c0.9,1.4,2.2,3.4,2.8,4.4h0.1c-0.1-2.1-0.1-3.6-0.1-5.7V37.9h3.7v24.2h-3.3
			l-9.5-13.5c-1-1.4-2.2-3.4-2.8-4.4h-0.1c0.1,2.1,0.1,3.6,0.1,5.7v12.3h-3.7V37.9z"/>
		<path class="st1" d="M220,62.4c-6.8,0-11.2-5-11.2-12.1c0-7,4.3-12.7,11.6-12.7c6.8,0,11.2,5,11.2,12.1
			C231.6,56.7,227.3,62.4,220,62.4z M220.4,40.8c-5,0-7.7,4.1-7.7,9.5c0,5.4,2.8,8.9,7.3,8.9c5,0,7.7-4.1,7.7-9.5
			C227.7,44.3,224.9,40.8,220.4,40.8z"/>
		<path class="st1" d="M234.7,37.9h18.2V41h-7.2v21.1h-3.7V41h-7.2V37.9z"/>
		<path class="st1" d="M274.2,42.6c-1.7-1-4.1-1.7-6.4-1.7c-5.1,0-8.3,4.1-8.3,9.4s3.1,8.8,8,8.8c2.7,0,5.5-0.9,7.1-1.9l0.3,3.5
			c-1.5,1-4.4,1.7-7.4,1.7c-7.3,0-11.8-5-11.8-12.1c0-7.2,4.7-12.8,12.2-12.8c2.4,0,4.9,0.4,6.7,1.5L274.2,42.6z"/>
		<path class="st1" d="M284.4,37.9V48h11.9V37.9h3.7v24.2h-3.7V51.2h-11.9v10.9h-3.7V37.9H284.4z"/>
	</g>
</g>
</svg>
